<svg width="24" height="23" viewBox="0 0 24 23" fill="none" xmlns="http://www.w3.org/2000/svg">
<path d="M12.206 20.351C11.7259 20.6537 11.486 20.805 11.2189 20.805C10.9518 20.805 10.7117 20.6536 10.2318 20.351L8.45232 19.2287C8.00069 18.9439 7.77488 18.8015 7.52425 18.7933C7.25344 18.7843 7.02363 18.921 6.53561 19.2287C5.98905 19.5734 4.90223 20.5229 4.19922 20.0701C3.76904 19.7931 3.76904 19.0892 3.76904 17.6815V7.76782C3.76904 5.13389 3.76904 3.81693 4.53916 2.99868C5.30929 2.18042 6.54877 2.18042 9.02775 2.18042H13.41C15.889 2.18042 17.1285 2.18042 17.8986 2.99868C18.6687 3.81693 18.6687 5.13389 18.6687 7.76782V11.4927" stroke="white" stroke-width="1.39684" stroke-linecap="round" stroke-linejoin="round"/>
<path d="M11.2186 10.5615H7.49365" stroke="white" stroke-width="1.39684" stroke-linecap="round" stroke-linejoin="round"/>
<path d="M16.806 13.3552V20.805M20.5309 17.0801H13.0811" stroke="white" stroke-width="1.39684" stroke-linecap="round" stroke-linejoin="round"/>
<path d="M14.9435 6.83657H7.49365" stroke="white" stroke-width="1.39684" stroke-linecap="round" stroke-linejoin="round"/>
</svg>
