<svg width="24" height="23" viewBox="0 0 24 23" fill="none" xmlns="http://www.w3.org/2000/svg">
<path d="M3.6123 10.0959V14.2864C3.6123 16.9203 3.6123 18.2372 4.43056 19.0555C5.24881 19.8738 6.56577 19.8738 9.19968 19.8738H12.459M20.3744 10.0959V11.9583" stroke="white" stroke-width="1.39684" stroke-linecap="round"/>
<path d="M7.33691 16.1489H11.0618" stroke="white" stroke-width="1.39684" stroke-linecap="round"/>
<path d="M14.7871 17.5457H21.3057M18.0464 20.805V14.2864" stroke="white" stroke-width="1.39684" stroke-linecap="round"/>
<path d="M17.3893 2.18279L6.54433 2.20838C4.92571 2.1296 4.51068 3.3087 4.51068 3.88509C4.51068 4.40061 4.44042 5.15214 3.44837 6.56463C2.45633 7.97712 2.53087 8.39673 3.09029 9.37458C3.55457 10.1861 4.73549 10.5032 5.35123 10.5565C7.30701 10.5986 8.25857 9.00057 8.25857 7.8775C9.22878 10.6994 11.9881 10.6994 13.2175 10.3767C14.4493 10.0535 15.5045 8.89627 15.7535 7.8775C15.8987 9.14355 16.3393 9.88235 17.6413 10.39C18.9899 10.9158 20.1496 10.1121 20.7316 9.59692C21.3135 9.08173 21.6869 7.93801 20.6496 6.68094C19.9343 5.81404 19.6361 4.99734 19.5382 4.1509C19.4814 3.66044 19.4316 3.13341 19.0668 2.79804C18.5339 2.30792 17.7691 2.15921 17.3893 2.18279Z" stroke="white" stroke-width="1.39684" stroke-linecap="round" stroke-linejoin="round"/>
</svg>
