<svg width="10" height="13" viewBox="0 0 10 13" fill="none" xmlns="http://www.w3.org/2000/svg">
<path d="M0.764509 8.09432C0.764065 8.19107 0.805516 8.28517 0.882218 8.3616L4.50992 12.0585C4.56396 12.1133 4.63364 12.1577 4.71351 12.1883C4.79338 12.2188 4.88129 12.2347 4.97041 12.2347C5.05953 12.2347 5.14744 12.2188 5.22731 12.1883C5.30718 12.1577 5.37681 12.1133 5.43085 12.0585L9.0586 8.3616C9.1353 8.28517 9.17671 8.19107 9.17627 8.09432C9.17651 8.03558 9.16175 7.97738 9.13285 7.92305C9.10395 7.86873 9.06151 7.81935 9.00789 7.77774C8.95426 7.73614 8.89051 7.70313 8.82035 7.68061C8.7502 7.65808 8.67499 7.64648 8.59903 7.64648L1.34175 7.64648C1.26579 7.64648 1.19057 7.65808 1.12042 7.68061C1.05027 7.70313 0.986557 7.73614 0.932933 7.77774C0.879308 7.81935 0.836824 7.86873 0.807926 7.92305C0.779028 7.97738 0.764263 8.03558 0.764509 8.09432Z" fill="black"/>
<path d="M0.764509 4.90568C0.764065 4.80893 0.805516 4.71483 0.882218 4.6384L4.50992 0.941542C4.56396 0.886741 4.63364 0.842323 4.71351 0.811749C4.79338 0.781175 4.88129 0.765281 4.97041 0.765281C5.05953 0.765281 5.14744 0.781175 5.22731 0.811749C5.30718 0.842323 5.37681 0.886741 5.43085 0.941542L9.0586 4.6384C9.1353 4.71483 9.17671 4.80893 9.17627 4.90568C9.17651 4.96442 9.16175 5.02262 9.13285 5.07695C9.10395 5.13127 9.06151 5.18065 9.00789 5.22226C8.95426 5.26386 8.89051 5.29687 8.82035 5.31939C8.7502 5.34192 8.67499 5.35352 8.59903 5.35352L1.34175 5.35352C1.26579 5.35352 1.19057 5.34192 1.12042 5.31939C1.05027 5.29687 0.986557 5.26386 0.932933 5.22226C0.879308 5.18065 0.836824 5.13127 0.807926 5.07695C0.779028 5.02262 0.764263 4.96442 0.764509 4.90568Z" fill="black"/>
</svg>
