<svg width="16" height="16" viewBox="0 0 16 16" fill="none" xmlns="http://www.w3.org/2000/svg">
<path d="M8.0013 5.33406L2.66797 10.6674V13.334H5.33464L10.668 8.00072M8.0013 5.33406L9.9137 3.42162L9.9149 3.42049C10.1781 3.15724 10.31 3.02538 10.462 2.97599C10.5959 2.93248 10.7401 2.93248 10.874 2.97599C11.0259 3.02534 11.1576 3.15705 11.4205 3.41993L12.5804 4.5798C12.8444 4.84381 12.9764 4.97588 13.0259 5.1281C13.0694 5.26199 13.0694 5.40622 13.0259 5.54012C12.9765 5.69222 12.8446 5.82409 12.581 6.08772L12.5804 6.08829L10.668 8.00072M8.0013 5.33406L10.668 8.00072" stroke="white" stroke-linecap="round" stroke-linejoin="round"/>
</svg>
