<svg width="20" height="20" viewBox="0 0 20 20" fill="none" xmlns="http://www.w3.org/2000/svg">
<path d="M2.0835 9.99999C2.0835 6.26804 2.0835 4.40207 3.24286 3.24269C4.40224 2.08333 6.26821 2.08333 10.0002 2.08333C13.7321 2.08333 15.5981 2.08333 16.7575 3.24269C17.9168 4.40207 17.9168 6.26804 17.9168 9.99999C17.9168 13.7319 17.9168 15.5979 16.7575 16.7573C15.5981 17.9167 13.7321 17.9167 10.0002 17.9167C6.26821 17.9167 4.40224 17.9167 3.24286 16.7573C2.0835 15.5979 2.0835 13.7319 2.0835 9.99999Z" stroke="#666666" stroke-width="1.25"/>
<path d="M2.0835 5.83333H6.04183M17.9168 5.83333H13.9585" stroke="#666666" stroke-width="1.25"/>
<path d="M5.8335 5.83333H14.1668V6.24999C14.1668 7.4285 14.1668 8.01776 13.8007 8.38391C13.4346 8.75 12.8453 8.75 11.6668 8.75H8.3335C7.15499 8.75 6.56573 8.75 6.19961 8.38391C5.8335 8.01776 5.8335 7.4285 5.8335 6.24999V5.83333Z" stroke="#666666" stroke-width="1.25"/>
<path d="M10 11.6667H10.0079" stroke="#666666" stroke-width="1.66667" stroke-linecap="round" stroke-linejoin="round"/>
</svg>
