<svg width="20" height="20" viewBox="0 0 20 20" fill="none" xmlns="http://www.w3.org/2000/svg">
<path d="M8.15337 7.39594C8.15337 6.98436 7.8197 6.6507 7.40813 6.6507C6.99657 6.6507 6.66291 6.98436 6.66291 7.39594H8.15337ZM12.7381 7.39594C12.7381 6.98436 12.4044 6.6507 11.9929 6.6507C11.5813 6.6507 11.2476 6.98436 11.2476 7.39594H12.7381ZM6.66302 7.38314C6.65596 7.79467 6.98383 8.134 7.39531 8.14108C7.80688 8.14815 8.14622 7.82027 8.15327 7.40874L6.66302 7.38314ZM8.16321 6.83043C8.17026 6.41891 7.84245 6.07957 7.43088 6.0725C7.01937 6.06542 6.68003 6.3933 6.67296 6.80483L8.16321 6.83043ZM8.13101 7.57724C8.23117 7.17801 7.98872 6.77321 7.58947 6.67309C7.19023 6.57296 6.78543 6.81543 6.6853 7.21465L8.13101 7.57724ZM7.25212 8.01797L7.97322 8.20625L7.97501 8.19926L7.25212 8.01797ZM4.16324 8.70626C3.82502 8.47173 3.3607 8.55578 3.12617 8.89398C2.89163 9.23222 2.97569 9.69656 3.31392 9.93106L4.16324 8.70626ZM4.48378 9.32632C4.48801 8.91475 4.15778 8.57768 3.74622 8.57347C3.33465 8.56924 2.9976 8.89945 2.99338 9.31102L4.48378 9.32632ZM3.68393 14.6516L4.42912 14.6606L4.42913 14.6593L3.68393 14.6516ZM7.71318 17.408C8.12475 17.408 8.45842 17.0744 8.45842 16.6628C8.45842 16.2512 8.12475 15.9176 7.71318 15.9176V17.408ZM3.31206 9.92977C3.64958 10.1654 4.11414 10.0827 4.3497 9.74515C4.58526 9.4077 4.50261 8.94307 4.1651 8.70755L3.31206 9.92977ZM2.82342 6.81763L2.12482 6.55814C2.11653 6.58044 2.10932 6.60312 2.10321 6.62612L2.82342 6.81763ZM3.65312 4.58389L4.35174 4.84338C4.35892 4.82405 4.36529 4.80442 4.37084 4.78455L3.65312 4.58389ZM4.75509 3.74524V3H4.75293L4.75509 3.74524ZM14.6449 3.74524L14.6471 3H14.6449V3.74524ZM15.7469 4.58389L15.0292 4.78456C15.0347 4.80438 15.0411 4.82398 15.0483 4.84329L15.7469 4.58389ZM16.5766 6.81863L17.2969 6.62719C17.2907 6.60421 17.2836 6.58153 17.2752 6.55923L16.5766 6.81863ZM15.2357 8.70779C14.8982 8.94356 14.8158 9.4081 15.0515 9.74555C15.2873 10.0829 15.752 10.1653 16.0893 9.92957L15.2357 8.70779ZM6.96797 16.6628C6.96797 17.0744 7.30161 17.408 7.71318 17.408C8.12475 17.408 8.45842 17.0744 8.45842 16.6628H6.96797ZM10.9426 16.6628C10.9426 17.0744 11.2762 17.408 11.6878 17.408C12.0994 17.408 12.4331 17.0744 12.4331 16.6628H10.9426ZM7.71318 15.9176C7.30161 15.9176 6.96797 16.2512 6.96797 16.6628C6.96797 17.0744 7.30161 17.408 7.71318 17.408V15.9176ZM11.6878 17.408C12.0994 17.408 12.4331 17.0744 12.4331 16.6628C12.4331 16.2512 12.0994 15.9176 11.6878 15.9176V17.408ZM11.2477 7.4049C11.2527 7.81646 11.5903 8.14608 12.0019 8.14114C12.4134 8.13618 12.7431 7.79853 12.7381 7.38698L11.2477 7.4049ZM12.7312 6.80867C12.7262 6.39712 12.3885 6.06749 11.977 6.07244C11.5654 6.0774 11.2358 6.41504 11.2408 6.8266L12.7312 6.80867ZM12.7185 7.21383C12.618 6.81472 12.2129 6.57272 11.8138 6.67329C11.4147 6.77387 11.1726 7.17895 11.2733 7.57805L12.7185 7.21383ZM12.1518 8.01499L11.4292 8.19711L11.4308 8.20301L12.1518 8.01499ZM16.0861 9.93176C16.4247 9.69785 16.5095 9.23371 16.2756 8.89507C16.0416 8.55643 15.5775 8.47158 15.2388 8.70553L16.0861 9.93176ZM16.4077 9.31142C16.4037 8.89984 16.0669 8.56947 15.6553 8.57347C15.2437 8.57745 14.9133 8.91435 14.9173 9.32592L16.4077 9.31142ZM15.7141 14.6516L14.969 14.6589V14.6606L15.7141 14.6516ZM11.6878 15.9176C11.2762 15.9176 10.9426 16.2512 10.9426 16.6628C10.9426 17.0744 11.2762 17.408 11.6878 17.408V15.9176ZM6.66291 7.39594C6.66291 9.07353 8.0229 10.4336 9.7005 10.4336V8.94307C8.84605 8.94307 8.15337 8.2504 8.15337 7.39594H6.66291ZM9.7005 10.4336C11.3782 10.4336 12.7381 9.07353 12.7381 7.39594H11.2476C11.2476 8.2504 10.5549 8.94307 9.7005 8.94307V10.4336ZM8.15327 7.40874L8.16321 6.83043L6.67296 6.80483L6.66302 7.38314L8.15327 7.40874ZM6.6853 7.21465L6.5293 7.83668L7.97501 8.19926L8.13101 7.57724L6.6853 7.21465ZM6.53109 7.8297C6.40401 8.31639 6.04728 8.71035 5.57557 8.88494L6.09302 10.2827C7.02124 9.93911 7.72322 9.16397 7.97322 8.20625L6.53109 7.8297ZM5.57557 8.88494C5.10385 9.05962 4.57659 8.99285 4.16324 8.70626L3.31392 9.93106C4.12728 10.4951 5.16481 10.6264 6.09302 10.2827L5.57557 8.88494ZM2.99338 9.31102L2.93872 14.644L4.42913 14.6593L4.48378 9.32632L2.99338 9.31102ZM2.93874 14.6427C2.92997 15.373 3.214 16.0765 3.7274 16.5961L4.7876 15.5485C4.55423 15.3123 4.42514 14.9926 4.42912 14.6606L2.93874 14.6427ZM3.7274 16.5961C4.24081 17.1157 4.94086 17.4081 5.6713 17.408L5.67124 15.9176C5.33922 15.9176 5.02096 15.7847 4.7876 15.5485L3.7274 16.5961ZM5.6713 17.408H7.71318V15.9176H5.67124L5.6713 17.408ZM4.1651 8.70755C3.62164 8.32825 3.37332 7.64963 3.54363 7.00915L2.10321 6.62612C1.77191 7.87195 2.25493 9.19198 3.31206 9.92977L4.1651 8.70755ZM3.52203 7.07713L4.35174 4.84338L2.95452 4.3244L2.12482 6.55814L3.52203 7.07713ZM4.37084 4.78455C4.41933 4.61112 4.57716 4.491 4.75725 4.49049L4.75293 3C3.90583 3.00245 3.1635 3.56741 2.93541 4.38323L4.37084 4.78455ZM4.75509 4.49049H14.6449V3H4.75509V4.49049ZM14.6428 4.49049C14.8229 4.491 14.9807 4.61112 15.0292 4.78456L16.4646 4.38322C16.2366 3.56741 15.4942 3.00245 14.6471 3L14.6428 4.49049ZM15.0483 4.84329L15.878 7.07802L17.2752 6.55923L16.4455 4.3245L15.0483 4.84329ZM15.8564 7.01007C16.0265 7.65019 15.7785 8.32841 15.2357 8.70779L16.0893 9.92957C17.1455 9.19158 17.6278 7.87234 17.2969 6.62719L15.8564 7.01007ZM8.45842 16.6628V13.6818H6.96797V16.6628H8.45842ZM8.45842 13.6818C8.45842 13.5446 8.56971 13.4334 8.70684 13.4334V11.9429C7.74647 11.9429 6.96797 12.7215 6.96797 13.6818H8.45842ZM8.70684 13.4334H10.6942V11.9429H8.70684V13.4334ZM10.6942 13.4334C10.8314 13.4334 10.9426 13.5446 10.9426 13.6818H12.4331C12.4331 12.7215 11.6545 11.9429 10.6942 11.9429V13.4334ZM10.9426 13.6818V16.6628H12.4331V13.6818H10.9426ZM7.71318 17.408H11.6878V15.9176H7.71318V17.408ZM12.7381 7.38698L12.7312 6.80867L11.2408 6.8266L11.2477 7.4049L12.7381 7.38698ZM11.2733 7.57805L11.4292 8.19711L12.8745 7.83288L12.7185 7.21383L11.2733 7.57805ZM11.4308 8.20301C11.6803 9.16008 12.3811 9.93514 13.3083 10.2794L13.8272 8.88226C13.356 8.70724 12.9998 8.31335 12.873 7.82697L11.4308 8.20301ZM13.3083 10.2794C14.2354 10.6238 15.2723 10.4941 16.0861 9.93176L15.2388 8.70553C14.8253 8.99126 14.2983 9.05724 13.8272 8.88226L13.3083 10.2794ZM14.9173 9.32592L14.969 14.6589L16.4594 14.6444L16.4077 9.31142L14.9173 9.32592ZM14.969 14.6606C14.9729 14.9926 14.8439 15.3123 14.6105 15.5485L15.6707 16.5961C16.1841 16.0765 16.4681 15.373 16.4594 14.6427L14.969 14.6606ZM14.6105 15.5485C14.3771 15.7847 14.0589 15.9176 13.7269 15.9176L13.7268 17.408C14.4572 17.4081 15.1573 17.1157 15.6707 16.5961L14.6105 15.5485ZM13.7269 15.9176H11.6878V17.408H13.7268L13.7269 15.9176Z" fill="#666666"/>
</svg>
