<svg width="145" height="73" viewBox="0 0 145 73" fill="none" xmlns="http://www.w3.org/2000/svg">
<path d="M3.22982 28.3801H8.72897C9.42403 28.3801 10.0169 28.6254 10.5075 29.116C10.9981 29.6066 11.2435 30.1995 11.2435 30.8946C11.2435 31.5896 10.9981 32.1825 10.5075 32.6731C10.0169 33.1637 9.42403 33.409 8.72897 33.409H3.22982C2.53476 33.409 1.94191 33.1637 1.45128 32.6731C0.960648 32.1825 0.715332 31.5896 0.715332 30.8946C0.715332 30.1995 0.960648 29.6066 1.45128 29.116C1.94191 28.6254 2.53476 28.3801 3.22982 28.3801Z" fill="#000AFF"/>
<path d="M8.74938 28.3801H14.2485C14.9436 28.3801 15.5364 28.6254 16.0271 29.116C16.5177 29.6066 16.763 30.1995 16.763 30.8946C16.763 31.5896 16.5177 32.1825 16.0271 32.6731C15.5364 33.1637 14.9436 33.409 14.2485 33.409H8.74938C8.05432 33.409 7.46148 33.1637 6.97085 32.6731C6.48022 32.1825 6.2349 31.5896 6.2349 30.8946C6.2349 30.1995 6.48022 29.6066 6.97085 29.116C7.46148 28.6254 8.05432 28.3801 8.74938 28.3801Z" fill="#000AFF"/>
<path d="M14.3404 33.3682V28.3392C15.5261 28.3392 16.4801 27.9712 17.2025 27.2353C17.9248 26.4993 18.2859 25.3273 18.2859 23.7191L18.3064 19.2488L24.1326 19.0622V23.7191C24.1326 26.8128 23.2672 29.1978 21.5364 30.8741C19.8055 32.5368 17.4069 33.3682 14.3404 33.3682ZM21.1684 41.3614C20.3916 41.3614 19.7306 41.1433 19.1854 40.7072C18.5994 40.2302 18.3064 39.6033 18.3064 38.8264C18.3064 38.0496 18.5994 37.4295 19.1854 36.9661C19.7442 36.5436 20.4052 36.3324 21.1684 36.3324C21.9316 36.3324 22.6062 36.5504 23.1922 36.9866C23.7783 37.4227 24.0713 38.036 24.0713 38.8264C24.0713 39.6033 23.7647 40.2302 23.1514 40.7072C22.5926 41.1433 21.9316 41.3614 21.1684 41.3614Z" fill="#000AFF"/>
<path d="M40.6296 28.3596C41.4882 28.3596 42.2719 28.2165 42.9806 27.9303C43.6893 27.6441 44.2821 27.2421 44.7591 26.7242C45.2498 26.2063 45.6245 25.5862 45.8835 24.8639C46.1561 24.1416 46.2924 23.3443 46.2924 22.4721C46.2924 21.5726 46.1561 20.7617 45.8835 20.0393C45.6245 19.317 45.2498 18.7037 44.7591 18.1995C44.2821 17.6952 43.6893 17.3068 42.9806 17.0342C42.2719 16.748 41.495 16.6049 40.6501 16.6049C39.8051 16.6049 39.0283 16.748 38.3196 17.0342C37.6245 17.3204 37.0249 17.7293 36.5206 18.2608C36.03 18.7787 35.6415 19.3988 35.3554 20.1211C35.0828 20.8298 34.9465 21.6135 34.9465 22.4721C34.9465 23.3443 35.0828 24.1416 35.3554 24.8639C35.6415 25.5862 36.0368 26.2063 36.541 26.7242C37.0453 27.2421 37.645 27.6441 38.34 27.9303C39.0351 28.2165 39.7983 28.3596 40.6296 28.3596ZM56.0641 33.409C54.5922 33.3954 53.2907 33.1842 52.1595 32.7753C52.0777 33.7702 51.8733 34.7174 51.5462 35.6169C51.1237 36.7753 50.4968 37.777 49.6654 38.622C48.8341 39.467 47.7983 40.128 46.5581 40.605C45.3588 41.0683 43.9687 41.3068 42.3877 41.3205V36.1893C43.6279 36.1893 44.5956 35.8145 45.2907 35.0649C45.9039 34.4107 46.2447 33.484 46.3128 32.2847C45.9993 32.421 45.6723 32.5504 45.3315 32.6731C43.9142 33.1637 42.3537 33.409 40.6501 33.409C38.9329 33.409 37.3656 33.1637 35.9482 32.6731C34.5308 32.1825 33.3111 31.4738 32.2889 30.547C31.2668 29.6339 30.4695 28.4959 29.8971 27.1331C29.3383 25.7702 29.0589 24.2165 29.0589 22.4721C29.0589 20.7685 29.3383 19.2353 29.8971 17.8724C30.4695 16.5232 31.2668 15.3852 32.2889 14.4584C33.3111 13.518 34.5308 12.8025 35.9482 12.3119C37.3656 11.8213 38.9329 11.576 40.6501 11.576C42.3537 11.576 43.9142 11.8145 45.3315 12.2915C46.7489 12.7821 47.9687 13.4976 48.9908 14.438C49.9993 15.3647 50.783 16.5027 51.3418 17.8519C51.9142 19.2012 52.2004 20.7412 52.2004 22.4721V24.0053C52.2004 25.4363 52.5479 26.5198 53.243 27.2557C53.938 28.0053 54.8988 28.3801 56.1254 28.3801C56.8205 28.3801 57.4133 28.6254 57.904 29.116C58.3946 29.6066 58.6399 30.1995 58.6399 30.8946C58.6399 31.5896 58.3946 32.1825 57.904 32.6731C57.4133 33.1637 56.8205 33.409 56.1254 33.409H56.0641Z" fill="#000AFF"/>
<path d="M65.3043 32.6935C64.2685 32.2847 63.369 31.7532 62.6058 31.099C61.8563 31.7532 60.9568 32.2847 59.9074 32.6935C58.708 33.1569 57.3179 33.3954 55.737 33.409V28.3801C56.9772 28.3801 57.9448 28.0053 58.6399 27.2557C59.335 26.5061 59.6825 25.4158 59.6825 23.9848V4.0325H65.5496V24.0053C65.5496 25.4363 65.8972 26.5198 66.5922 27.2557C67.2873 28.0053 68.2481 28.3801 69.4747 28.3801C70.1697 28.3801 70.7626 28.6254 71.2532 29.116C71.7438 29.6066 71.9892 30.1995 71.9892 30.8946C71.9892 31.5896 71.7438 32.1825 71.2532 32.6731C70.7626 33.1637 70.7733 32.6935 70.0783 32.6935L69.4394 33.2885C67.8857 33.2749 66.49 33.1569 65.3043 32.6935Z" fill="#000AFF"/>
<path d="M89.4378 28.3596C90.2964 28.3596 91.0732 28.2233 91.7683 27.9508C92.4769 27.6782 93.0766 27.2898 93.5672 26.7855C94.0579 26.2676 94.4327 25.6475 94.6916 24.9252C94.9642 24.2029 95.1005 23.392 95.1005 22.4925C95.1005 21.6203 94.9642 20.823 94.6916 20.1007C94.4327 19.3784 94.0579 18.7582 93.5672 18.2404C93.0766 17.7225 92.4769 17.3204 91.7683 17.0342C91.0732 16.748 90.2964 16.6049 89.4378 16.6049H82.2214C80.9948 16.6049 80.034 16.9797 79.3389 17.7293C78.6439 18.4652 78.2963 19.5487 78.2963 20.9797V28.3596H89.4378ZM97.6558 30.7106L97.6354 30.6901C96.6541 31.5487 95.4889 32.2097 94.1396 32.6731C92.7223 33.1637 91.155 33.409 89.4378 33.409L68.1883 33.2482L67.5842 28.3596H72.4292V4.0325H77.9284V12.3323L78.051 12.2915C79.2504 11.8145 80.6405 11.576 82.2214 11.576H89.4378C91.155 11.576 92.7223 11.8145 94.1396 12.2915C95.557 12.7821 96.77 13.4908 97.7785 14.4175C98.8006 15.3443 99.5911 16.4823 100.15 17.8315C100.722 19.1944 101.008 20.748 101.008 22.4925V23.9848C101.008 25.4158 101.356 26.5061 102.051 27.2557C102.746 27.9917 103.707 28.3596 104.934 28.3596C105.629 28.3596 106.221 28.6118 106.712 29.116C107.203 29.6066 107.448 30.1927 107.448 30.8741C107.448 31.5692 107.203 32.1688 106.712 32.6731C106.221 33.1637 105.629 33.409 104.934 33.409H104.872C103.319 33.3954 101.949 33.1569 100.763 32.6935C99.5366 32.2165 98.5008 31.5555 97.6558 30.7106Z" fill="#000AFF"/>
<path d="M120.47 28.3596C121.329 28.3596 122.106 28.2165 122.801 27.9303C123.509 27.6441 124.109 27.2421 124.6 26.7242C125.09 26.2063 125.465 25.5862 125.724 24.8639C125.997 24.1416 126.133 23.3443 126.133 22.4721C126.133 21.5862 125.997 20.7821 125.724 20.0598C125.451 19.3238 125.07 18.7037 124.579 18.1995C124.102 17.6952 123.509 17.3068 122.801 17.0342C122.106 16.748 121.329 16.6049 120.47 16.6049C119.639 16.6049 118.869 16.748 118.16 17.0342C117.451 17.3204 116.852 17.7293 116.361 18.2608C115.87 18.7923 115.482 19.4124 115.196 20.1211C114.923 20.8298 114.787 21.6135 114.787 22.4721C114.787 23.3443 114.923 24.1416 115.196 24.8639C115.482 25.5862 115.877 26.2063 116.382 26.7242C116.886 27.2421 117.485 27.6441 118.181 27.9303C118.876 28.2165 119.639 28.3596 120.47 28.3596ZM133.063 27.2557C133.758 28.0053 134.726 28.3801 135.966 28.3801C136.661 28.3801 137.254 28.6254 137.744 29.116C138.235 29.6066 138.48 30.1995 138.48 30.8946C138.48 31.5896 138.235 32.1825 137.744 32.6731C137.254 33.1637 136.661 33.409 135.966 33.409H135.925C134.371 33.3954 132.995 33.1569 131.796 32.6935C130.555 32.2165 129.52 31.5555 128.688 30.7106L128.668 30.6901C127.687 31.5487 126.514 32.2097 125.152 32.6731C123.734 33.1637 122.174 33.409 120.47 33.409C118.767 33.409 117.206 33.1637 115.789 32.6731C114.426 32.2097 113.247 31.5487 112.252 30.6901L112.232 30.7106C111.387 31.5555 110.351 32.2165 109.124 32.6935C107.925 33.1569 106.535 33.3954 104.954 33.409V28.3801C106.181 28.3801 107.141 28.0053 107.836 27.2557C108.531 26.5198 108.879 25.4363 108.879 24.0053V22.4721C108.879 20.7685 109.165 19.2421 109.738 17.8928C110.296 16.5436 111.087 15.3988 112.109 14.4584C113.145 13.5317 114.371 12.8162 115.789 12.3119C117.206 11.8213 118.767 11.576 120.47 11.576C122.174 11.576 123.734 11.8213 125.152 12.3119C126.583 12.7889 127.802 13.4976 128.811 14.438C129.819 15.3647 130.61 16.5027 131.182 17.8519C131.741 19.2148 132.02 20.7548 132.02 22.4721V24.0053C132.02 25.4363 132.368 26.5198 133.063 27.2557Z" fill="#000AFF"/>
<path d="M135.986 28.3801H141.486C142.181 28.3801 142.773 28.6254 143.264 29.116C143.755 29.6066 144 30.1995 144 30.8946C144 31.5896 143.755 32.1825 143.264 32.6731C142.773 33.1637 142.181 33.409 141.486 33.409H135.986C135.291 33.409 134.698 33.1637 134.208 32.6731C133.717 32.1825 133.472 31.5896 133.472 30.8946C133.472 30.1995 133.717 29.6066 134.208 29.116C134.698 28.6254 135.291 28.3801 135.986 28.3801Z" fill="#000AFF"/>
<path d="M59.6778 4.03147C59.6778 2.40938 60.9928 1.09443 62.6149 1.09443C64.2369 1.09443 65.5519 2.40938 65.5519 4.03147V6.27744H59.6778V4.03147Z" fill="#000AFF"/>
<path d="M18.2586 18.7167C18.2586 17.0946 19.5735 15.7796 21.1956 15.7796C22.8177 15.7796 24.1327 17.0946 24.1327 18.7167V20.9627H18.2586V18.7167Z" fill="#000AFF"/>
<path d="M72.428 3.8587C72.428 2.33203 73.6656 1.09443 75.1923 1.09443C76.7189 1.09443 77.9566 2.33203 77.9566 3.8587V6.27744H72.428V3.8587Z" fill="#000AFF"/>
<path d="M3.22982 28.3801H8.72897C9.42403 28.3801 10.0169 28.6254 10.5075 29.116C10.9981 29.6066 11.2435 30.1995 11.2435 30.8946C11.2435 31.5896 10.9981 32.1825 10.5075 32.6731C10.0169 33.1637 9.42403 33.409 8.72897 33.409H3.22982C2.53476 33.409 1.94191 33.1637 1.45128 32.6731C0.960648 32.1825 0.715332 31.5896 0.715332 30.8946C0.715332 30.1995 0.960648 29.6066 1.45128 29.116C1.94191 28.6254 2.53476 28.3801 3.22982 28.3801Z" stroke="#000AFF" stroke-width="1.38214"/>
<path d="M8.74938 28.3801H14.2485C14.9436 28.3801 15.5364 28.6254 16.0271 29.116C16.5177 29.6066 16.763 30.1995 16.763 30.8946C16.763 31.5896 16.5177 32.1825 16.0271 32.6731C15.5364 33.1637 14.9436 33.409 14.2485 33.409H8.74938C8.05432 33.409 7.46148 33.1637 6.97085 32.6731C6.48022 32.1825 6.2349 31.5896 6.2349 30.8946C6.2349 30.1995 6.48022 29.6066 6.97085 29.116C7.46148 28.6254 8.05432 28.3801 8.74938 28.3801Z" stroke="#000AFF" stroke-width="1.38214"/>
<path d="M14.3404 33.3682V28.3392C15.5261 28.3392 16.4801 27.9712 17.2025 27.2353C17.9248 26.4993 18.2859 25.3273 18.2859 23.7191L18.3064 19.2488L24.1326 19.0622V23.7191C24.1326 26.8128 23.2672 29.1978 21.5364 30.8741C19.8055 32.5368 17.4069 33.3682 14.3404 33.3682ZM21.1684 41.3614C20.3916 41.3614 19.7306 41.1433 19.1854 40.7072C18.5994 40.2302 18.3064 39.6033 18.3064 38.8264C18.3064 38.0496 18.5994 37.4295 19.1854 36.9661C19.7442 36.5436 20.4052 36.3324 21.1684 36.3324C21.9316 36.3324 22.6062 36.5504 23.1922 36.9866C23.7783 37.4227 24.0713 38.036 24.0713 38.8264C24.0713 39.6033 23.7647 40.2302 23.1514 40.7072C22.5926 41.1433 21.9316 41.3614 21.1684 41.3614Z" stroke="#000AFF" stroke-width="1.38214"/>
<path d="M40.6296 28.3596C41.4882 28.3596 42.2719 28.2165 42.9806 27.9303C43.6893 27.6441 44.2821 27.2421 44.7591 26.7242C45.2498 26.2063 45.6245 25.5862 45.8835 24.8639C46.1561 24.1416 46.2924 23.3443 46.2924 22.4721C46.2924 21.5726 46.1561 20.7617 45.8835 20.0393C45.6245 19.317 45.2498 18.7037 44.7591 18.1995C44.2821 17.6952 43.6893 17.3068 42.9806 17.0342C42.2719 16.748 41.495 16.6049 40.6501 16.6049C39.8051 16.6049 39.0283 16.748 38.3196 17.0342C37.6245 17.3204 37.0249 17.7293 36.5206 18.2608C36.03 18.7787 35.6415 19.3988 35.3554 20.1211C35.0828 20.8298 34.9465 21.6135 34.9465 22.4721C34.9465 23.3443 35.0828 24.1416 35.3554 24.8639C35.6415 25.5862 36.0368 26.2063 36.541 26.7242C37.0453 27.2421 37.645 27.6441 38.34 27.9303C39.0351 28.2165 39.7983 28.3596 40.6296 28.3596ZM56.0641 33.409C54.5922 33.3954 53.2907 33.1842 52.1595 32.7753C52.0777 33.7702 51.8733 34.7174 51.5462 35.6169C51.1237 36.7753 50.4968 37.777 49.6654 38.622C48.8341 39.467 47.7983 40.128 46.5581 40.605C45.3588 41.0683 43.9687 41.3068 42.3877 41.3205V36.1893C43.6279 36.1893 44.5956 35.8145 45.2907 35.0649C45.9039 34.4107 46.2447 33.484 46.3128 32.2847C45.9993 32.421 45.6723 32.5504 45.3315 32.6731C43.9142 33.1637 42.3537 33.409 40.6501 33.409C38.9329 33.409 37.3656 33.1637 35.9482 32.6731C34.5308 32.1825 33.3111 31.4738 32.2889 30.547C31.2668 29.6339 30.4695 28.4959 29.8971 27.1331C29.3383 25.7702 29.0589 24.2165 29.0589 22.4721C29.0589 20.7685 29.3383 19.2353 29.8971 17.8724C30.4695 16.5232 31.2668 15.3852 32.2889 14.4584C33.3111 13.518 34.5308 12.8025 35.9482 12.3119C37.3656 11.8213 38.9329 11.576 40.6501 11.576C42.3537 11.576 43.9142 11.8145 45.3315 12.2915C46.7489 12.7821 47.9687 13.4976 48.9908 14.438C49.9993 15.3647 50.783 16.5027 51.3418 17.8519C51.9142 19.2012 52.2004 20.7412 52.2004 22.4721V24.0053C52.2004 25.4363 52.5479 26.5198 53.243 27.2557C53.938 28.0053 54.8988 28.3801 56.1254 28.3801C56.8205 28.3801 57.4133 28.6254 57.904 29.116C58.3946 29.6066 58.6399 30.1995 58.6399 30.8946C58.6399 31.5896 58.3946 32.1825 57.904 32.6731C57.4133 33.1637 56.8205 33.409 56.1254 33.409H56.0641Z" stroke="#000AFF" stroke-width="1.38214"/>
<path d="M65.3043 32.6935C64.2685 32.2847 63.369 31.7532 62.6058 31.099C61.8563 31.7532 60.9568 32.2847 59.9074 32.6935C58.708 33.1569 57.3179 33.3954 55.737 33.409V28.3801C56.9772 28.3801 57.9448 28.0053 58.6399 27.2557C59.335 26.5061 59.6825 25.4158 59.6825 23.9848V4.0325H65.5496V24.0053C65.5496 25.4363 65.8972 26.5198 66.5922 27.2557C67.2873 28.0053 68.2481 28.3801 69.4747 28.3801C70.1697 28.3801 70.7626 28.6254 71.2532 29.116C71.7438 29.6066 71.9892 30.1995 71.9892 30.8946C71.9892 31.5896 71.7438 32.1825 71.2532 32.6731C70.7626 33.1637 70.7733 32.6935 70.0783 32.6935L69.4394 33.2885C67.8857 33.2749 66.49 33.1569 65.3043 32.6935Z" stroke="#000AFF" stroke-width="1.38214"/>
<path d="M89.4378 28.3596C90.2964 28.3596 91.0732 28.2233 91.7683 27.9508C92.4769 27.6782 93.0766 27.2898 93.5672 26.7855C94.0579 26.2676 94.4327 25.6475 94.6916 24.9252C94.9642 24.2029 95.1005 23.392 95.1005 22.4925C95.1005 21.6203 94.9642 20.823 94.6916 20.1007C94.4327 19.3784 94.0579 18.7582 93.5672 18.2404C93.0766 17.7225 92.4769 17.3204 91.7683 17.0342C91.0732 16.748 90.2964 16.6049 89.4378 16.6049H82.2214C80.9948 16.6049 80.034 16.9797 79.3389 17.7293C78.6439 18.4652 78.2963 19.5487 78.2963 20.9797V28.3596H89.4378ZM97.6558 30.7106L97.6354 30.6901C96.6541 31.5487 95.4889 32.2097 94.1396 32.6731C92.7223 33.1637 91.155 33.409 89.4378 33.409L68.1883 33.2482L67.5842 28.3596H72.4292V4.0325H77.9284V12.3323L78.051 12.2915C79.2504 11.8145 80.6405 11.576 82.2214 11.576H89.4378C91.155 11.576 92.7223 11.8145 94.1396 12.2915C95.557 12.7821 96.77 13.4908 97.7785 14.4175C98.8006 15.3443 99.5911 16.4823 100.15 17.8315C100.722 19.1944 101.008 20.748 101.008 22.4925V23.9848C101.008 25.4158 101.356 26.5061 102.051 27.2557C102.746 27.9917 103.707 28.3596 104.934 28.3596C105.629 28.3596 106.221 28.6118 106.712 29.116C107.203 29.6066 107.448 30.1927 107.448 30.8741C107.448 31.5692 107.203 32.1688 106.712 32.6731C106.221 33.1637 105.629 33.409 104.934 33.409H104.872C103.319 33.3954 101.949 33.1569 100.763 32.6935C99.5366 32.2165 98.5008 31.5555 97.6558 30.7106Z" stroke="#000AFF" stroke-width="1.38214"/>
<path d="M120.47 28.3596C121.329 28.3596 122.106 28.2165 122.801 27.9303C123.509 27.6441 124.109 27.2421 124.6 26.7242C125.09 26.2063 125.465 25.5862 125.724 24.8639C125.997 24.1416 126.133 23.3443 126.133 22.4721C126.133 21.5862 125.997 20.7821 125.724 20.0598C125.451 19.3238 125.07 18.7037 124.579 18.1995C124.102 17.6952 123.509 17.3068 122.801 17.0342C122.106 16.748 121.329 16.6049 120.47 16.6049C119.639 16.6049 118.869 16.748 118.16 17.0342C117.451 17.3204 116.852 17.7293 116.361 18.2608C115.87 18.7923 115.482 19.4124 115.196 20.1211C114.923 20.8298 114.787 21.6135 114.787 22.4721C114.787 23.3443 114.923 24.1416 115.196 24.8639C115.482 25.5862 115.877 26.2063 116.382 26.7242C116.886 27.2421 117.485 27.6441 118.181 27.9303C118.876 28.2165 119.639 28.3596 120.47 28.3596ZM133.063 27.2557C133.758 28.0053 134.726 28.3801 135.966 28.3801C136.661 28.3801 137.254 28.6254 137.744 29.116C138.235 29.6066 138.48 30.1995 138.48 30.8946C138.48 31.5896 138.235 32.1825 137.744 32.6731C137.254 33.1637 136.661 33.409 135.966 33.409H135.925C134.371 33.3954 132.995 33.1569 131.796 32.6935C130.555 32.2165 129.52 31.5555 128.688 30.7106L128.668 30.6901C127.687 31.5487 126.514 32.2097 125.152 32.6731C123.734 33.1637 122.174 33.409 120.47 33.409C118.767 33.409 117.206 33.1637 115.789 32.6731C114.426 32.2097 113.247 31.5487 112.252 30.6901L112.232 30.7106C111.387 31.5555 110.351 32.2165 109.124 32.6935C107.925 33.1569 106.535 33.3954 104.954 33.409V28.3801C106.181 28.3801 107.141 28.0053 107.836 27.2557C108.531 26.5198 108.879 25.4363 108.879 24.0053V22.4721C108.879 20.7685 109.165 19.2421 109.738 17.8928C110.296 16.5436 111.087 15.3988 112.109 14.4584C113.145 13.5317 114.371 12.8162 115.789 12.3119C117.206 11.8213 118.767 11.576 120.47 11.576C122.174 11.576 123.734 11.8213 125.152 12.3119C126.583 12.7889 127.802 13.4976 128.811 14.438C129.819 15.3647 130.61 16.5027 131.182 17.8519C131.741 19.2148 132.02 20.7548 132.02 22.4721V24.0053C132.02 25.4363 132.368 26.5198 133.063 27.2557Z" stroke="#000AFF" stroke-width="1.38214"/>
<path d="M135.986 28.3801H141.486C142.181 28.3801 142.773 28.6254 143.264 29.116C143.755 29.6066 144 30.1995 144 30.8946C144 31.5896 143.755 32.1825 143.264 32.6731C142.773 33.1637 142.181 33.409 141.486 33.409H135.986C135.291 33.409 134.698 33.1637 134.208 32.6731C133.717 32.1825 133.472 31.5896 133.472 30.8946C133.472 30.1995 133.717 29.6066 134.208 29.116C134.698 28.6254 135.291 28.3801 135.986 28.3801Z" stroke="#000AFF" stroke-width="1.38214"/>
<path d="M59.6778 4.03147C59.6778 2.40938 60.9928 1.09443 62.6149 1.09443C64.2369 1.09443 65.5519 2.40938 65.5519 4.03147V6.27744H59.6778V4.03147Z" stroke="#000AFF" stroke-width="1.38214"/>
<path d="M18.2586 18.7167C18.2586 17.0946 19.5735 15.7796 21.1956 15.7796C22.8177 15.7796 24.1327 17.0946 24.1327 18.7167V20.9627H18.2586V18.7167Z" stroke="#000AFF" stroke-width="1.38214"/>
<path d="M72.428 3.8587C72.428 2.33203 73.6656 1.09443 75.1923 1.09443C76.7189 1.09443 77.9566 2.33203 77.9566 3.8587V6.27744H72.428V3.8587Z" stroke="#000AFF" stroke-width="1.38214"/>
<path d="M39.2495 38.4992C39.2495 36.8032 40.6812 35.4593 42.3738 35.5665V42.1096C40.6819 42.219 39.2495 40.8762 39.2495 39.1807V38.4992Z" fill="#000AFF"/>
<path d="M68.7576 19.7464H74.2669V26.0177C74.2669 27.5391 73.0336 28.7724 71.5123 28.7724C69.9909 28.7724 68.7576 27.5391 68.7576 26.0177L68.7576 19.7464Z" fill="#000AFF"/>
<path d="M66.24 18.7049H71.7387V24.9815C71.7387 26.5 70.5077 27.7309 68.9893 27.7309C67.4709 27.7309 66.24 26.5 66.24 24.9815L66.24 18.7049Z" fill="white"/>
<path d="M85.549 73C84.8949 73 84.3383 72.8164 83.8793 72.4492C83.3859 72.0476 83.1391 71.5197 83.1391 70.8656C83.1391 70.2115 83.3859 69.6893 83.8793 69.2992C84.3383 68.9434 84.8949 68.7655 85.549 68.7655C86.1916 68.7655 86.7597 68.9492 87.2531 69.3164C87.7466 69.6836 87.9933 70.2 87.9933 70.8656C87.9933 71.5312 87.7351 72.059 87.2187 72.4492C86.7597 72.8164 86.2031 73 85.549 73ZM91.1089 73C90.4433 73 89.8868 72.8164 89.4392 72.4492C88.9343 72.0476 88.6818 71.5197 88.6818 70.8656C88.6818 70.2115 88.9343 69.6893 89.4392 69.2992C89.8983 68.9434 90.4548 68.7655 91.1089 68.7655C91.7516 68.7655 92.3196 68.9492 92.813 69.3164C93.3065 69.6836 93.5532 70.2 93.5532 70.8656C93.5532 71.5312 93.295 72.059 92.7786 72.4492C92.3196 72.8164 91.763 73 91.1089 73ZM104.828 61.1228C105.413 61.754 106.222 62.0695 107.255 62.0695C107.84 62.0695 108.339 62.2761 108.753 62.6892C109.166 63.1023 109.372 63.6015 109.372 64.1868C109.372 64.772 109.166 65.2712 108.753 65.6844C108.339 66.0975 107.84 66.304 107.255 66.304H107.203C105.895 66.2926 104.742 66.0917 103.744 65.7016C102.711 65.2999 101.844 64.7434 101.144 64.0319C100.433 63.3204 99.8992 62.4769 99.5435 61.5015C99.1992 60.5261 99.0271 59.4589 99.0271 58.2998V52.1547C97.9943 52.1547 97.1623 52.4645 96.5311 53.0842C95.9229 53.7039 95.6188 54.708 95.6188 56.0965V66.304H85.1531C83.8449 66.304 82.6801 66.1319 81.6588 65.7876C80.6489 65.4434 79.7825 64.927 79.0596 64.2384C78.3366 63.5499 77.7915 62.7007 77.4243 61.6909C77.0456 60.6695 76.8563 59.4818 76.8563 58.1277V50.0374H83.7932V54.2719H81.7621V58.1277C81.7621 59.5162 82.0662 60.5203 82.6744 61.14C83.2941 61.7597 84.1203 62.0695 85.1531 62.0695H90.6958V56.0965C90.6958 54.7424 90.8851 53.5547 91.2638 52.5333C91.6425 51.512 92.1934 50.6571 92.9163 49.9686C93.6278 49.2915 94.4942 48.7808 95.5155 48.4366C96.5369 48.0923 97.7016 47.9202 99.0099 47.9202H103.95V58.3687C103.95 59.5736 104.243 60.4917 104.828 61.1228Z" fill="#23AF57"/>
<path d="M113.022 73C112.367 73 111.811 72.8164 111.352 72.4492C110.858 72.0476 110.612 71.5197 110.612 70.8656C110.612 70.2115 110.858 69.6893 111.352 69.2992C111.822 68.9434 112.379 68.7655 113.022 68.7655C113.664 68.7655 114.232 68.9492 114.726 69.3164C115.219 69.6836 115.466 70.2 115.466 70.8656C115.466 71.5197 115.208 72.0476 114.691 72.4492C114.221 72.8164 113.664 73 113.022 73ZM115.311 65.7016C114.45 65.3688 113.71 64.927 113.09 64.3761C112.425 64.9614 111.639 65.4147 110.732 65.736C109.711 66.0917 108.558 66.2696 107.272 66.2696V62.0351C108.271 62.0351 109.074 61.7253 109.682 61.1056C110.29 60.4859 110.594 59.499 110.594 58.1449L110.612 50.0374H117.549V54.2719H115.517V58.3859C115.517 59.5908 115.81 60.5031 116.395 61.1228C116.981 61.754 117.79 62.0695 118.822 62.0695C119.408 62.0695 119.907 62.2761 120.32 62.6892C120.733 63.1023 120.94 63.6015 120.94 64.1868C120.94 64.772 120.733 65.2712 120.32 65.6844C119.907 66.0975 119.413 66.304 118.84 66.304H118.754C117.457 66.2811 116.309 66.0803 115.311 65.7016Z" fill="#23AF57"/>
<path d="M134.917 66.304H118.84V62.0523H120.595V45.8201H118.84V41.5684H125.226V48.5571C126.259 48.1439 127.464 47.9316 128.841 47.9202H134.917C136.363 47.9202 137.683 48.121 138.876 48.5226C141.297 49.3603 142.984 50.9153 143.937 53.1875C144.419 54.335 144.66 55.6432 144.66 57.1121C144.66 58.5695 144.419 59.8662 143.937 61.0023C143.455 62.1384 142.789 63.1023 141.94 63.8942C141.091 64.6745 140.069 65.2712 138.876 65.6844C137.683 66.0975 136.363 66.304 134.917 66.304ZM134.917 62.0523C135.64 62.0523 136.294 61.9376 136.879 61.7081C137.476 61.4786 137.981 61.1515 138.394 60.7269C138.807 60.2908 139.123 59.7687 139.341 59.1605C139.57 58.5523 139.685 57.8695 139.685 57.1121C139.685 56.3777 139.57 55.7063 139.341 55.0981C139.123 54.4899 138.807 53.9678 138.394 53.5317C137.981 53.0956 137.476 52.7571 136.879 52.5161C136.294 52.2751 135.64 52.1547 134.917 52.1547H128.841C127.808 52.1547 126.999 52.4702 126.414 53.1014C125.828 53.7211 125.536 54.6334 125.536 55.8383V62.0523H134.917Z" fill="#23AF57"/>
<path d="M9.65213 54.2156C10.648 54.2156 11.3921 54.4728 11.8846 54.9871C12.3771 55.4905 12.6233 56.3113 12.6233 57.4494V63.1783H11.1952V57.515C11.1952 56.8256 11.0474 56.3058 10.752 55.9556C10.4674 55.6054 10.0187 55.4303 9.40591 55.4303C8.55232 55.4303 7.93948 55.6765 7.5674 56.169C7.20627 56.6614 7.0257 57.3782 7.0257 58.3194V63.1783H5.59758V57.515C5.59758 57.0554 5.53192 56.6724 5.4006 56.366C5.26928 56.0486 5.0723 55.8133 4.80965 55.6601C4.54701 55.5069 4.20776 55.4303 3.79191 55.4303C3.20096 55.4303 2.73587 55.5562 2.39662 55.8079C2.05737 56.0486 1.81114 56.4043 1.65793 56.8748C1.51567 57.3454 1.44454 57.9254 1.44454 58.6149V63.1783H0V54.3797H1.16548L1.37888 55.578H1.46095C1.64699 55.2716 1.87133 55.0199 2.13398 54.8229C2.40756 54.615 2.70851 54.4618 3.03681 54.3633C3.36511 54.2648 3.70436 54.2156 4.05455 54.2156C4.73305 54.2156 5.29664 54.336 5.74532 54.5767C6.20494 54.8175 6.53872 55.1895 6.74664 55.6929H6.82872C7.12419 55.1895 7.52363 54.8175 8.02703 54.5767C8.54137 54.336 9.08307 54.2156 9.65213 54.2156Z" fill="#535353"/>
<path d="M18.2795 62.1605C18.4983 62.1605 18.7227 62.1441 18.9525 62.1113C19.1823 62.0675 19.3683 62.0237 19.5106 61.98V63.0798C19.3574 63.1564 19.1385 63.2166 18.854 63.2604C18.5695 63.3151 18.2959 63.3424 18.0332 63.3424C17.5736 63.3424 17.1468 63.2658 16.7529 63.1126C16.3698 62.9485 16.058 62.6694 15.8172 62.2754C15.5764 61.8815 15.4561 61.3288 15.4561 60.6175V55.496H14.2085V54.8065L15.4725 54.232L16.047 52.3607H16.9006V54.3797H19.445V55.496H16.9006V60.5847C16.9006 61.1209 17.0264 61.5203 17.2781 61.783C17.5408 62.0347 17.8746 62.1605 18.2795 62.1605Z" fill="#535353"/>
<path d="M22.717 63.1783H21.2724V50.7027H22.717V63.1783Z" fill="#535353"/>
<path d="M33.1539 58.7626C33.1539 59.4958 33.0555 60.1469 32.8585 60.716C32.6724 61.2741 32.3988 61.7502 32.0377 62.1441C31.6875 62.5381 31.2553 62.839 30.7409 63.047C30.2375 63.2439 29.6739 63.3424 29.0502 63.3424C28.4701 63.3424 27.9339 63.2439 27.4415 63.047C26.949 62.839 26.5222 62.5381 26.1611 62.1441C25.7999 61.7502 25.5154 61.2741 25.3075 60.716C25.1105 60.1469 25.012 59.4958 25.012 58.7626C25.012 57.7886 25.1762 56.9679 25.5045 56.3003C25.8328 55.6218 26.3033 55.1075 26.9162 54.7573C27.529 54.3961 28.2568 54.2156 29.0994 54.2156C29.8983 54.2156 30.5986 54.3961 31.2005 54.7573C31.8134 55.1075 32.2894 55.6218 32.6287 56.3003C32.9789 56.9679 33.1539 57.7886 33.1539 58.7626ZM26.5058 58.7626C26.5058 59.452 26.5933 60.0539 26.7684 60.5683C26.9545 61.0717 27.239 61.4602 27.622 61.7337C28.005 62.0073 28.492 62.1441 29.083 62.1441C29.6739 62.1441 30.1609 62.0073 30.5439 61.7337C30.927 61.4602 31.206 61.0717 31.3811 60.5683C31.5671 60.0539 31.6602 59.452 31.6602 58.7626C31.6602 58.0622 31.5671 57.4658 31.3811 56.9733C31.1951 56.4809 30.9105 56.1033 30.5275 55.8407C30.1554 55.5671 29.6685 55.4303 29.0666 55.4303C28.1692 55.4303 27.5181 55.7258 27.1132 56.3167C26.7083 56.9077 26.5058 57.723 26.5058 58.7626Z" fill="#535353"/>
<path d="M43.0928 58.7626C43.0928 59.4958 42.9943 60.1469 42.7974 60.716C42.6113 61.2741 42.3377 61.7502 41.9766 62.1441C41.6264 62.5381 41.1941 62.839 40.6798 63.047C40.1764 63.2439 39.6128 63.3424 38.989 63.3424C38.409 63.3424 37.8728 63.2439 37.3803 63.047C36.8879 62.839 36.4611 62.5381 36.1 62.1441C35.7388 61.7502 35.4543 61.2741 35.2464 60.716C35.0494 60.1469 34.9509 59.4958 34.9509 58.7626C34.9509 57.7886 35.1151 56.9679 35.4434 56.3003C35.7717 55.6218 36.2422 55.1075 36.8551 54.7573C37.4679 54.3961 38.1956 54.2156 39.0383 54.2156C39.8372 54.2156 40.5375 54.3961 41.1394 54.7573C41.7523 55.1075 42.2283 55.6218 42.5676 56.3003C42.9177 56.9679 43.0928 57.7886 43.0928 58.7626ZM36.4447 58.7626C36.4447 59.452 36.5322 60.0539 36.7073 60.5683C36.8934 61.0717 37.1779 61.4602 37.5609 61.7337C37.9439 62.0073 38.4309 62.1441 39.0219 62.1441C39.6128 62.1441 40.0998 62.0073 40.4828 61.7337C40.8658 61.4602 41.1449 61.0717 41.32 60.5683C41.506 60.0539 41.5991 59.452 41.5991 58.7626C41.5991 58.0622 41.506 57.4658 41.32 56.9733C41.134 56.4809 40.8494 56.1033 40.4664 55.8407C40.0943 55.5671 39.6073 55.4303 39.0055 55.4303C38.1081 55.4303 37.457 55.7258 37.052 56.3167C36.6471 56.9077 36.4447 57.723 36.4447 58.7626Z" fill="#535353"/>
<path d="M46.8268 53.7395C46.8268 54.1116 46.8158 54.4618 46.7939 54.7901C46.783 55.1075 46.7666 55.3592 46.7447 55.5452H46.8268C47.0785 55.1731 47.4232 54.8612 47.8609 54.6095C48.2987 54.3578 48.8623 54.232 49.5517 54.232C50.646 54.232 51.5215 54.615 52.1781 55.3811C52.8457 56.1362 53.1795 57.2688 53.1795 58.779C53.1795 59.7858 53.0262 60.6284 52.7198 61.3069C52.4244 61.9854 52.003 62.4943 51.4559 62.8336C50.9087 63.1728 50.274 63.3424 49.5517 63.3424C48.8623 63.3424 48.2987 63.2166 47.8609 62.9649C47.4232 62.7132 47.0785 62.4122 46.8268 62.062H46.7119L46.4164 63.1783H45.3822V50.7027H46.8268V53.7395ZM49.3055 55.4303C48.6817 55.4303 48.1892 55.5507 47.8281 55.7914C47.467 56.0213 47.2098 56.3824 47.0566 56.8748C46.9034 57.3564 46.8268 57.9747 46.8268 58.7298V58.7954C46.8268 59.8788 47.0019 60.7105 47.3521 61.2905C47.7132 61.8596 48.3753 62.1441 49.3383 62.1441C50.1262 62.1441 50.7117 61.8541 51.0947 61.2741C51.4887 60.6941 51.6857 59.8569 51.6857 58.7626C51.6857 57.6573 51.4887 56.8256 51.0947 56.2675C50.7117 55.7094 50.1153 55.4303 49.3055 55.4303Z" fill="#535353"/>
<path d="M55.268 62.2919C55.268 61.8869 55.3665 61.6024 55.5635 61.4383C55.7605 61.2741 55.9958 61.192 56.2694 61.192C56.5539 61.192 56.7947 61.2741 56.9916 61.4383C57.1996 61.6024 57.3035 61.8869 57.3035 62.2919C57.3035 62.6858 57.1996 62.9704 56.9916 63.1454C56.7947 63.3205 56.5539 63.4081 56.2694 63.4081C55.9958 63.4081 55.7605 63.3205 55.5635 63.1454C55.3665 62.9704 55.268 62.6858 55.268 62.2919Z" fill="#535353"/>
<path d="M65.6027 60.7488C65.6027 61.3179 65.4604 61.7939 65.1759 62.1769C64.8914 62.56 64.4865 62.85 63.9612 63.047C63.4359 63.2439 62.8121 63.3424 62.0898 63.3424C61.477 63.3424 60.9462 63.2932 60.4976 63.1947C60.0598 63.0962 59.6713 62.9594 59.3321 62.7843V61.4711C59.6823 61.6462 60.1036 61.8103 60.5961 61.9636C61.0994 62.1058 61.6083 62.1769 62.1227 62.1769C62.8559 62.1769 63.3866 62.062 63.7149 61.8322C64.0432 61.5915 64.2074 61.2741 64.2074 60.8801C64.2074 60.6613 64.1472 60.4643 64.0268 60.2892C63.9064 60.1141 63.6876 59.939 63.3702 59.7639C63.0638 59.5888 62.6206 59.3918 62.0406 59.173C61.4715 58.9541 60.9845 58.7352 60.5796 58.5164C60.1747 58.2975 59.8628 58.0348 59.644 57.7284C59.4251 57.422 59.3157 57.028 59.3157 56.5465C59.3157 55.8024 59.6166 55.2279 60.2185 54.8229C60.8313 54.418 61.6302 54.2156 62.6151 54.2156C63.1513 54.2156 63.6493 54.2703 64.1089 54.3797C64.5795 54.4782 65.0172 54.6205 65.4221 54.8065L64.9297 55.9556C64.6889 55.8462 64.4317 55.7531 64.1581 55.6765C63.8955 55.589 63.6274 55.5233 63.3538 55.4795C63.0802 55.4248 62.8012 55.3975 62.5166 55.3975C61.9257 55.3975 61.4715 55.496 61.1542 55.6929C60.8477 55.879 60.6945 56.1362 60.6945 56.4645C60.6945 56.7052 60.7657 56.9131 60.9079 57.0882C61.0502 57.2524 61.2855 57.4165 61.6138 57.5807C61.953 57.7339 62.4017 57.9199 62.9598 58.1388C63.518 58.3467 63.994 58.5601 64.388 58.779C64.7819 58.9979 65.0829 59.266 65.2908 59.5833C65.4987 59.8898 65.6027 60.2783 65.6027 60.7488Z" fill="#535353"/>
<path d="M71.061 54.232C72.1334 54.232 72.9268 54.4673 73.4412 54.9378C73.9555 55.4084 74.2127 56.158 74.2127 57.1867V63.1783H73.1621L72.8831 61.9307H72.8174C72.5657 62.2481 72.3031 62.5162 72.0295 62.7351C71.7668 62.943 71.4604 63.0962 71.1102 63.1947C70.771 63.2932 70.3551 63.3424 69.8627 63.3424C69.3374 63.3424 68.8614 63.2494 68.4346 63.0634C68.0187 62.8773 67.6904 62.5928 67.4496 62.2098C67.2089 61.8158 67.0885 61.3234 67.0885 60.7324C67.0885 59.8569 67.4332 59.1839 68.1227 58.7133C68.8121 58.2318 69.8736 57.9692 71.3072 57.9254L72.801 57.8762V57.3509C72.801 56.6177 72.6423 56.1088 72.325 55.8243C72.0076 55.5397 71.5589 55.3975 70.9789 55.3975C70.5193 55.3975 70.0816 55.4686 69.6657 55.6109C69.2498 55.7422 68.8614 55.8954 68.5002 56.0705L68.057 54.9871C68.44 54.7792 68.8942 54.6041 69.4195 54.4618C69.9448 54.3086 70.4919 54.232 71.061 54.232ZM71.4878 58.9267C70.3934 58.9705 69.6329 59.1456 69.2061 59.452C68.7902 59.7584 68.5823 60.1907 68.5823 60.7488C68.5823 61.2413 68.73 61.6024 69.0255 61.8322C69.3319 62.062 69.7204 62.1769 70.191 62.1769C70.9351 62.1769 71.5534 61.9745 72.0459 61.5696C72.5384 61.1537 72.7846 60.519 72.7846 59.6654V58.8775L71.4878 58.9267Z" fill="#535353"/>
</svg>
