<svg width="20" height="20" viewBox="0 0 20 20" fill="none" xmlns="http://www.w3.org/2000/svg">
<path d="M7.37514 8.91531C7.48918 8.84947 7.58387 8.75477 7.6497 8.64072C7.71553 8.52668 7.75017 8.39731 7.75014 8.26563V1.51563C7.74947 1.39605 7.72022 1.27837 7.66483 1.1724C7.60943 1.06643 7.52951 0.975234 7.43171 0.906428C7.33392 0.837622 7.22108 0.793197 7.10263 0.776858C6.98418 0.760519 6.86353 0.772739 6.75076 0.8125C4.56168 1.58726 2.72075 3.11748 1.5589 5.12807C0.397059 7.13865 -0.0094955 9.49774 0.412325 11.7813C0.434189 11.8993 0.48409 12.0104 0.55783 12.1052C0.631571 12.2 0.726994 12.2757 0.836075 12.3259C0.934377 12.3719 1.04162 12.3956 1.15014 12.3953C1.28177 12.3954 1.41111 12.3608 1.52514 12.295L7.37514 8.91531ZM6.25014 2.65188V7.8325L1.76139 10.4228C1.75014 10.2812 1.75014 10.1388 1.75014 10C1.75147 8.47971 2.17229 6.98928 2.96626 5.69279C3.76023 4.3963 4.89656 3.34404 6.25014 2.65188ZM19.7501 10C19.7509 12.1404 19.0473 14.2216 17.7478 15.9225C16.4484 17.6234 14.6254 18.8493 12.56 19.4113C10.4947 19.9733 8.3018 19.84 6.31973 19.0321C4.33765 18.2241 2.67652 16.7863 1.59264 14.9406C1.54211 14.8554 1.50898 14.761 1.49516 14.6628C1.48134 14.5647 1.48711 14.4648 1.51213 14.3689C1.53715 14.273 1.58092 14.183 1.64092 14.1041C1.70092 14.0253 1.77596 13.9591 1.8617 13.9094L9.25014 9.60906V1C9.25014 0.801088 9.32915 0.610322 9.46981 0.46967C9.61046 0.329018 9.80122 0.25 10.0001 0.25C11.7016 0.250868 13.3732 0.696751 14.849 1.54338C16.3249 2.39001 17.5536 3.60794 18.4133 5.07625C18.4236 5.09125 18.4329 5.10625 18.4423 5.12219C18.4517 5.13813 18.4611 5.15688 18.4695 5.17375C19.3107 6.64297 19.7523 8.30699 19.7501 10Z" fill="#000AFF"/>
</svg>
